<svg xmlns="http://www.w3.org/2000/svg" data-name="Layer 1" viewBox="0 0 100 125" x="0px" y="0px"><title>10</title><g data-name="Group"><path data-name="Compound Path" d="M90.4,27.7a2,2,0,0,0-2.8,0l-14,14A10.8,10.8,0,0,1,59.9,43L81.4,21.4a2,2,0,0,0-2.8-2.8L57,40.1a10.8,10.8,0,0,1,1.3-13.7l14-14a2,2,0,0,0-2.8-2.8l-14,14A14.8,14.8,0,0,0,54.2,43l-.5.5L22.7,12.6a2,2,0,0,0-3.3.8l-4,12.3A16.9,16.9,0,0,0,19.5,43L33.1,56.5l-.2.2L11.1,78.5A7.4,7.4,0,0,0,21.5,88.9L43.3,67.1l.2-.2,7.7,7.7a2,2,0,0,0,2.8,0l5-5L75.1,85.8A7.4,7.4,0,0,0,85.5,75.4L67.9,57.8h0L56.5,46.4l.5-.5a14.8,14.8,0,0,0,19.4-1.3l14-14A2,2,0,0,0,90.4,27.7ZM18.7,86A3.4,3.4,0,0,1,14,81.3L34.3,60.9l4.7,4.7Zm64-3A3.4,3.4,0,0,1,78,83L61.8,66.8,66.5,62,82.7,78.3A3.4,3.4,0,0,1,82.7,83ZM52.5,70.3,22.4,40.2A12.9,12.9,0,0,1,19.2,27l3-9.2,30,30h0L63.7,59.2Z"/></g><text x="0" y="115" fill="#000000" font-size="5px" font-weight="bold" font-family="'Helvetica Neue', Helvetica, Arial-Unicode, Arial, Sans-serif">Created by Lalitha</text><text x="0" y="120" fill="#000000" font-size="5px" font-weight="bold" font-family="'Helvetica Neue', Helvetica, Arial-Unicode, Arial, Sans-serif">from the Noun Project</text></svg>