<svg xmlns="http://www.w3.org/2000/svg" xmlns:xlink="http://www.w3.org/1999/xlink" version="1.1" x="0px" y="0px" viewBox="0 0 100 125" style="enable-background:new 0 0 100 100;" xml:space="preserve"><path d="M69.894,39.748h9.583c0.552,0,1-0.447,1-1s-0.448-1-1-1h-9.583c-0.552,0-1,0.447-1,1S69.342,39.748,69.894,39.748z"/><path d="M84.214,41.703h-14.32c-0.552,0-1,0.447-1,1s0.448,1,1,1h14.32c0.552,0,1-0.447,1-1S84.767,41.703,84.214,41.703z"/><path d="M65.759,40.354c-0.021-0.052-0.057-0.092-0.086-0.139c-0.033-0.055-0.055-0.114-0.1-0.162l-2.431-2.667  c-0.371-0.406-1.004-0.438-1.413-0.065c-0.408,0.372-0.438,1.005-0.065,1.413l0.905,0.993h-2.607c-0.552,0-1,0.447-1,1s0.448,1,1,1  h2.607l-0.905,0.993c-0.372,0.408-0.343,1.041,0.065,1.413c0.192,0.175,0.433,0.261,0.673,0.261c0.271,0,0.542-0.11,0.74-0.326  l2.431-2.667c0.044-0.049,0.067-0.108,0.1-0.162c0.029-0.047,0.065-0.088,0.086-0.139C65.855,40.858,65.855,40.593,65.759,40.354z"/><path d="M69.894,58.106h9.583c0.552,0,1-0.447,1-1s-0.448-1-1-1h-9.583c-0.552,0-1,0.447-1,1S69.342,58.106,69.894,58.106z"/><path d="M84.214,60.062h-14.32c-0.552,0-1,0.447-1,1s0.448,1,1,1h14.32c0.552,0,1-0.447,1-1S84.767,60.062,84.214,60.062z"/><path d="M65.419,58.18h-3.601l0.96-0.96c0.391-0.391,0.391-1.023,0-1.414s-1.023-0.391-1.414,0l-2.666,2.666  c-0.093,0.092-0.166,0.203-0.217,0.326c-0.101,0.244-0.101,0.52,0,0.764c0.051,0.123,0.124,0.233,0.217,0.326l2.666,2.666  c0.195,0.195,0.451,0.293,0.707,0.293s0.512-0.098,0.707-0.293c0.391-0.391,0.391-1.023,0-1.414l-0.96-0.96h3.601  c0.552,0,1-0.447,1-1S65.971,58.18,65.419,58.18z"/><path d="M10.659,85.049c0.079,0,0.16-0.009,0.24-0.029c18.176-4.471,34.514-5.256,47.454-4.639V89c0,0.553,0.448,1,1,1s1-0.447,1-1  v-8.516c10.715,0.645,18.888,2.221,23.563,3.329V89c0,0.553,0.448,1,1,1s1-0.447,1-1v-4.691c1.539,0.402,2.38,0.672,2.431,0.689  c0.524,0.179,1.09-0.111,1.263-0.636c0.173-0.524-0.111-1.09-0.635-1.263c-0.058-0.019-1.13-0.361-3.058-0.853v-9.351  c0.25-0.21,0.476-0.426,0.689-0.63c0.776-0.744,1.337-1.282,2.562-1.282c0.552,0,1-0.447,1-1s-0.448-1-1-1  c-1.52,0-2.497,0.572-3.251,1.203v-3.41h3.209c0.552,0,1-0.447,1-1V52.583c0-0.553-0.448-1-1-1h-3.209v-3.261h3.209  c0.552,0,1-0.447,1-1V34.129c0-0.553-0.448-1-1-1H55.143c-0.552,0-1,0.447-1,1v13.193c0,0.553,0.448,1,1,1h3.209v3.261h-3.209  c-0.552,0-1,0.447-1,1v13.193c0,0.553,0.448,1,1,1h3.209v4.797c-0.453,0.327-0.953,0.53-1.703,0.53  c-1.222,0-1.782-0.537-2.557-1.281c-0.853-0.819-1.915-1.839-3.942-1.839s-3.089,1.02-3.942,1.839  c-0.775,0.744-1.335,1.281-2.557,1.281c-1.223,0-1.782-0.537-2.557-1.281c-0.538-0.516-1.154-1.085-2.02-1.453  c-1.29-15.917-2.193-32.78-2.42-37.196c7.46,0.863,9.418,8.859,9.507,9.238c0.088,0.379,0.389,0.673,0.77,0.753  c0.068,0.014,0.137,0.021,0.205,0.021c0.312,0,0.611-0.146,0.802-0.402c3.085-4.148,2.221-10.033-1.927-13.119  c-0.768-0.571-1.597-1.006-2.456-1.31c1.444-0.024,2.934,0.179,4.469,0.623c3.957,1.143,6.749,3.483,6.777,3.507  c0.297,0.251,0.714,0.307,1.067,0.146c0.354-0.164,0.58-0.518,0.58-0.907c0-6.62-5.386-12.006-12.006-12.006  c-1.653,0-3.229,0.336-4.663,0.943c5.002-3.907,11.733-2.526,12.112-2.445c0.379,0.082,0.775-0.062,1.01-0.373  c0.235-0.311,0.269-0.729,0.086-1.073c-1.369-2.573-3.658-4.46-6.446-5.312c-2.789-0.854-5.742-0.567-8.314,0.802  c-2.203,1.172-3.829,3.002-4.79,5.115c-0.96-2.113-2.587-3.942-4.79-5.115c-5.311-2.825-11.935-0.803-14.761,4.51  c-0.183,0.345-0.149,0.764,0.086,1.074s0.632,0.456,1.011,0.372c0.381-0.082,7.169-1.495,12.178,2.485  c-1.435-0.612-3.013-0.952-4.67-0.952c-6.586,0-11.944,5.358-11.944,11.944c0,0.39,0.227,0.744,0.581,0.908  c0.355,0.163,0.771,0.105,1.068-0.146c0.027-0.023,2.753-2.319,6.674-3.469c1.644-0.482,3.237-0.691,4.775-0.634  c-0.862,0.305-1.693,0.74-2.463,1.314c-2.01,1.495-3.317,3.683-3.681,6.16c-0.364,2.479,0.259,4.949,1.754,6.959  c0.191,0.257,0.49,0.402,0.802,0.402c0.068,0,0.136-0.007,0.205-0.021c0.381-0.08,0.682-0.374,0.77-0.753  c0.087-0.373,1.988-8.12,9.143-9.194c-0.239,4.589-1.181,22.061-2.497,38.206c-0.789-0.717-1.808-1.44-3.513-1.44  c-2.027,0-3.088,1.02-3.941,1.839c-0.775,0.744-1.334,1.281-2.557,1.281c-1.222,0-1.782-0.537-2.556-1.281  c-0.854-0.819-1.915-1.839-3.942-1.839c-0.552,0-1,0.447-1,1s0.448,1,1,1c1.222,0,1.782,0.537,2.556,1.281  c0.854,0.819,1.915,1.839,3.942,1.839c2.027,0,3.089-1.02,3.942-1.839c0.774-0.744,1.334-1.281,2.556-1.281  c1.221,0,1.78,0.537,2.554,1.281c0.218,0.209,0.436,0.418,0.668,0.614c0.025,0.021,0.057,0.027,0.083,0.046  c-0.202,2.385-0.412,4.725-0.629,6.97c-5.268,0.754-10.754,1.79-16.418,3.184c-0.537,0.132-0.864,0.673-0.732,1.21  C9.801,84.744,10.209,85.049,10.659,85.049z M33.384,32.181c0.069,0.008,0.138,0,0.207-0.006c0.072,0.008,0.145,0.015,0.218,0.006  c0.287-0.033,0.566-0.054,0.84-0.069c0.065,1.263,0.194,3.72,0.38,6.985H31.8c0.186-3.273,0.316-5.735,0.382-6.995  C32.571,32.111,32.969,32.133,33.384,32.181z M31.685,41.097h3.457c0.126,2.181,0.274,4.636,0.439,7.272h-4.335  C31.412,45.73,31.559,43.279,31.685,41.097z M35.708,50.369c0.149,2.327,0.31,4.766,0.484,7.272h-5.555  c0.173-2.505,0.334-4.946,0.483-7.272H35.708z M30.498,59.642h5.835c0.17,2.398,0.351,4.837,0.541,7.272h-6.914  C30.149,64.479,30.329,62.04,30.498,59.642z M83.916,81.761c-4.857-1.126-13.008-2.647-23.563-3.275v-5.994  c0.081-0.077,0.163-0.154,0.24-0.228c0.775-0.744,1.335-1.281,2.558-1.281c1.222,0,1.781,0.537,2.556,1.281  c0.853,0.819,1.915,1.839,3.942,1.839c2.028,0,3.09-1.02,3.944-1.839c0.775-0.744,1.335-1.281,2.559-1.281  c1.225,0,1.786,0.538,2.562,1.282c0.854,0.818,1.917,1.838,3.945,1.838c0.469,0,0.882-0.059,1.257-0.153V81.761z M56.143,35.129  h31.982v11.193H56.143V35.129z M60.353,48.322h23.563v3.261H60.353V48.322z M56.143,53.583h31.982v11.193H56.143V53.583z   M83.916,66.776v5.061c-0.346,0.166-0.741,0.266-1.257,0.266c-1.225,0-1.785-0.538-2.561-1.281  c-0.854-0.819-1.917-1.839-3.946-1.839c-2.028,0-3.09,1.02-3.944,1.839c-0.775,0.744-1.335,1.281-2.559,1.281  c-1.222,0-1.782-0.537-2.556-1.281c-0.853-0.819-1.915-1.839-3.941-1.839c-1.235,0-2.109,0.38-2.798,0.861v-3.068H83.916z   M39.709,72.265c0.854,0.819,1.915,1.839,3.942,1.839s3.089-1.02,3.942-1.839c0.775-0.744,1.335-1.281,2.557-1.281  s1.782,0.537,2.557,1.281c0.853,0.819,1.915,1.839,3.942,1.839c0.665,0,1.219-0.117,1.703-0.293v4.57  c-5.579-0.263-11.779-0.261-18.473,0.169c-0.206-2.168-0.406-4.407-0.598-6.684C39.422,71.992,39.563,72.124,39.709,72.265z   M47.344,38.717c-0.443-1.047-1.106-2.338-2.059-3.601c-1.679-2.226-4.543-4.708-9.065-4.997c2.531-1.747,5.998-1.783,8.598,0.149  C47.494,32.259,48.433,35.731,47.344,38.717z M54.232,28.646c-2.169-1.356-6.028-3.275-10.495-3.275  c-2.853,0-5.954,0.783-9.02,2.995c1.062-4.385,5.02-7.651,9.726-7.651C49.249,20.715,53.274,24.121,54.232,28.646z M39.166,13.022  c1.308-0.695,2.734-1.049,4.175-1.049c0.875,0,1.755,0.131,2.616,0.394c1.6,0.489,3,1.396,4.078,2.62  c-3.836-0.221-11.535,0.356-15.379,7.859C33.798,19.028,35.548,14.948,39.166,13.022z M18.114,14.95  c-0.458,0-0.884,0.015-1.271,0.037c2.668-3.019,7.157-3.937,10.865-1.965c3.619,1.926,5.369,6.006,4.511,9.824  C28.762,16.103,22.195,14.95,18.114,14.95z M12.766,28.616c0.957-4.491,4.955-7.87,9.727-7.87c4.673,0,8.603,3.238,9.663,7.59  C24.34,22.707,16.306,26.406,12.766,28.616z M21.907,35.116c-0.954,1.265-1.618,2.558-2.061,3.604  c-0.418-1.14-0.549-2.372-0.367-3.606c0.286-1.949,1.314-3.67,2.896-4.846c1.32-0.981,2.863-1.455,4.393-1.455  c1.485,0,2.958,0.445,4.204,1.306C26.451,30.408,23.586,32.891,21.907,35.116z M29.804,68.914h7.229  c0.268,3.332,0.552,6.626,0.851,9.767c-2.914,0.222-5.927,0.539-9.01,0.942C29.2,76.205,29.512,72.583,29.804,68.914z"/><text x="0" y="115" fill="#000000" font-size="5px" font-weight="bold" font-family="'Helvetica Neue', Helvetica, Arial-Unicode, Arial, Sans-serif">Created by Made</text><text x="0" y="120" fill="#000000" font-size="5px" font-weight="bold" font-family="'Helvetica Neue', Helvetica, Arial-Unicode, Arial, Sans-serif">from the Noun Project</text></svg>