<svg xmlns="http://www.w3.org/2000/svg" data-name="Layer 1" viewBox="0 0 68 85" x="0px" y="0px"><title>Artboard 35@5x</title><path d="M35.14,27.36H23.5a4.23,4.23,0,0,1-1-8.35,4.22,4.22,0,0,1,4.19-3.85,4.17,4.17,0,0,1,.61,0,4.21,4.21,0,0,1,7.94-.82,4.4,4.4,0,0,1,.88-.1,4.26,4.26,0,0,1,3.91,2.6,1,1,0,0,1,.66.57,1,1,0,0,1,0,.88L36,26.84A1,1,0,0,1,35.14,27.36Zm-8.42-10.2a2.22,2.22,0,0,0-2.21,2.22,1.72,1.72,0,0,0,0,.33,1,1,0,0,1-.21.82,1,1,0,0,1-.77.37,2.23,2.23,0,1,0-.05,4.46h11l3.87-7.08a.83.83,0,0,1-.08-.22,2.24,2.24,0,0,0-2.19-1.78,2.28,2.28,0,0,0-1,.27,1,1,0,0,1-.92,0,1,1,0,0,1-.54-.74,2.22,2.22,0,0,0-4.42.34,1.49,1.49,0,0,0,0,.21,1,1,0,0,1-.4,1,1,1,0,0,1-1.05.08A2.25,2.25,0,0,0,26.72,17.16Z"/><path d="M19.45,56.07H3.39a1,1,0,0,1-.86-.49,1,1,0,0,1,0-1L12,37.28a1,1,0,0,1,1.88.55l1.1,1.1,1.95-2a1,1,0,0,1,1.42,0l1.91,1.92,1.62-1.62A1,1,0,0,1,22.7,37a1,1,0,0,1,.74.51l3.11,5.7a1,1,0,0,1,0,1L20.33,55.55A1,1,0,0,1,19.45,56.07Zm-14.38-2H18.86l5.67-10.39-2.21-4L20.93,41a1,1,0,0,1-1.41,0l-1.91-1.92-1.95,2a1,1,0,0,1-1.42,0l-1.32-1.33Z"/><path d="M15,41.34a1,1,0,0,1-.71-.29L12,38.81a1,1,0,0,1-.21-1.09l.15-.36,0-.09,4.79-8.76a1,1,0,0,1,.88-.52h0a1,1,0,0,1,.88.52l4.91,9a1,1,0,0,1-.17,1.18L20.94,41a1,1,0,0,1-1.42,0L17.61,39.1l-1.95,1.95A1,1,0,0,1,15,41.34Zm-1-3.44,1,1,1.95-2a1,1,0,0,1,1.42,0l1.91,1.91,1.09-1.08-3.67-6.74Z"/><path d="M37.58,33.2a1,1,0,0,1-.71-.29l-3.64-3.65a1,1,0,0,1-.17-1.18l8.1-14.81a1,1,0,0,1,.88-.52h0a1,1,0,0,1,.88.52l7.95,14.57A1,1,0,0,1,50.7,29l-3.82,3.81a1,1,0,0,1-1.42,0l-3.55-3.55-3.63,3.62A1,1,0,0,1,37.58,33.2Zm-2.41-4.82,2.41,2.41,3.62-3.62a1,1,0,0,1,1.41,0l3.56,3.55,2.58-2.58L42,15.83Z"/><path d="M64.61,56.08H19.45a1,1,0,0,1-.86-.5,1,1,0,0,1,0-1L33.06,28.08a1,1,0,0,1,1.59-.23l2.93,2.93,3.62-3.61a1,1,0,0,1,1.42,0l3.55,3.55,3.11-3.11a1,1,0,0,1,.85-.29,1,1,0,0,1,.74.51L65.49,54.6a1,1,0,0,1,0,1A1,1,0,0,1,64.61,56.08Zm-43.47-2H62.93L49.75,30l-2.87,2.87a1,1,0,0,1-1.42,0l-3.55-3.55L38.29,32.9a1,1,0,0,1-1.42,0l-2.69-2.69Z"/><text x="0" y="83" fill="#000000" font-size="5px" font-weight="bold" font-family="'Helvetica Neue', Helvetica, Arial-Unicode, Arial, Sans-serif">Created by Bernd Lakenbrink</text><text x="0" y="88" fill="#000000" font-size="5px" font-weight="bold" font-family="'Helvetica Neue', Helvetica, Arial-Unicode, Arial, Sans-serif">from the Noun Project</text></svg>